<svg width="614" height="397" viewBox="0 0 614 397" fill="none" xmlns="http://www.w3.org/2000/svg">
<rect width="614" height="397" fill="#F5F5F5"/>
<rect width="614" height="397" fill="#FFF2C2"/>
<g filter="url(#filter0_d_0_1)">
<rect x="431" y="182" width="120" height="152" fill="#EDEDED"/>
</g>
<rect x="441" y="193" width="100" height="106" fill="#F7E5A8"/>
<circle cx="463.5" cy="223.5" r="9.5" fill="#F7AA37"/>
<ellipse cx="518" cy="223.5" rx="10" ry="9.5" fill="#F7AA37"/>
<ellipse cx="16.4022" cy="14.1105" rx="16.4022" ry="14.1105" transform="matrix(0.967331 0.253518 -0.243052 0.970013 454.579 240.155)" fill="#F7AA37"/>
<ellipse cx="16.4022" cy="14.1105" rx="16.4022" ry="14.1105" transform="matrix(0.967345 -0.253463 0.242998 0.970027 495.534 248.677)" fill="#F7AA37"/>
<ellipse cx="463.5" cy="224" rx="4.5" ry="5" fill="#F8EAB9"/>
<ellipse cx="518.5" cy="224" rx="4.5" ry="5" fill="#F8EAB9"/>
<ellipse cx="491" cy="245.5" rx="37" ry="28.5" fill="#F7AA37"/>
<ellipse cx="491" cy="224" rx="3" ry="9" fill="#F7E5A8"/>
<ellipse cx="483.5" cy="221" rx="2.5" ry="6" fill="#F7E5A8"/>
<ellipse cx="498.5" cy="221" rx="2.5" ry="6" fill="#F7E5A8"/>
<circle cx="478" cy="244" r="2" fill="#482504" stroke="black" stroke-width="2"/>
<circle cx="477" cy="243" r="1" fill="#FFFBFB"/>
<ellipse cx="478.5" cy="245" rx="1.5" ry="1" fill="#FFFBFB"/>
<circle cx="504" cy="244" r="2" fill="#482504" stroke="black" stroke-width="2"/>
<circle cx="503" cy="243" r="1" fill="#FFFBFB"/>
<ellipse cx="504.5" cy="245" rx="1.5" ry="1" fill="#FFFBFB"/>
<path d="M490.5 249.75C491.077 249.75 491.438 250.375 491.15 250.875C490.861 251.375 490.139 251.375 489.85 250.875C489.562 250.375 489.923 249.75 490.5 249.75Z" fill="#482504" stroke="black" stroke-width="2"/>
<mask id="path-21-inside-1_0_1" fill="white">
<ellipse cx="491" cy="259" rx="1" ry="2"/>
</mask>
<ellipse cx="491" cy="259" rx="1" ry="2" fill="#482504"/>
<path d="M490 259C490 259.143 489.985 259.267 489.965 259.365C489.955 259.413 489.944 259.451 489.934 259.478C489.93 259.492 489.926 259.502 489.923 259.509C489.92 259.517 489.918 259.52 489.918 259.52C489.918 259.52 489.921 259.515 489.926 259.507C489.931 259.499 489.939 259.486 489.952 259.469C489.975 259.436 490.022 259.38 490.098 259.316C490.254 259.184 490.564 259 491 259V263C492.442 263 493.209 261.883 493.496 261.309C493.843 260.614 494 259.795 494 259H490ZM491 259C491.436 259 491.746 259.184 491.902 259.316C491.978 259.38 492.025 259.436 492.048 259.469C492.061 259.486 492.069 259.499 492.074 259.507C492.079 259.515 492.082 259.52 492.082 259.52C492.082 259.52 492.08 259.517 492.077 259.509C492.074 259.502 492.07 259.492 492.066 259.478C492.056 259.451 492.045 259.413 492.035 259.365C492.015 259.267 492 259.143 492 259H488C488 259.795 488.157 260.614 488.504 261.309C488.791 261.883 489.558 263 491 263V259ZM492 259C492 258.857 492.015 258.733 492.035 258.635C492.045 258.587 492.056 258.549 492.066 258.522C492.07 258.508 492.074 258.498 492.077 258.491C492.08 258.483 492.082 258.48 492.082 258.48C492.082 258.48 492.079 258.485 492.074 258.493C492.069 258.501 492.061 258.514 492.048 258.531C492.025 258.564 491.978 258.62 491.902 258.684C491.746 258.816 491.436 259 491 259V255C489.558 255 488.791 256.117 488.504 256.691C488.157 257.386 488 258.205 488 259H492ZM491 259C490.564 259 490.254 258.816 490.098 258.684C490.022 258.62 489.975 258.564 489.952 258.531C489.939 258.514 489.931 258.501 489.926 258.493C489.921 258.485 489.918 258.48 489.918 258.48C489.918 258.48 489.92 258.483 489.923 258.491C489.926 258.498 489.93 258.508 489.934 258.522C489.944 258.549 489.955 258.587 489.965 258.635C489.985 258.733 490 258.857 490 259H494C494 258.205 493.843 257.386 493.496 256.691C493.209 256.117 492.442 255 491 255V259Z" fill="black" mask="url(#path-21-inside-1_0_1)"/>
<ellipse cx="11.5091" cy="9.90114" rx="11.5091" ry="9.90114" transform="matrix(0.967331 0.253518 -0.243052 0.970013 457.087 246.572)" fill="#FDCFCF" fill-opacity="0.78"/>
<ellipse cx="11.5091" cy="9.90115" rx="11.5091" ry="9.90115" transform="matrix(0.967345 -0.253463 0.242998 0.970027 502.745 252.407)" fill="#FDCFCF" fill-opacity="0.78"/>
<ellipse cx="476" cy="252.5" rx="1" ry="0.5" fill="#482504"/>
<g filter="url(#filter1_d_0_1)">
<path d="M458.487 306.3C456.984 306.947 455.074 308.785 454.561 310.075C454.186 310.998 454.124 311.86 454.281 313.5C454.534 316.135 455.376 317.649 456.919 318.328C459.968 319.601 465.203 317.089 466.806 313.566C467.334 312.423 467.375 311.946 467.111 310.405C466.782 308.191 465.918 307.034 464.079 306.294C462.665 305.751 459.823 305.728 458.487 306.3ZM462.979 308.114C464.364 308.66 465.052 309.48 465.181 310.827C465.322 312.291 464.65 313.744 463.33 314.787C460.041 317.349 457.067 317.162 456.358 314.305C455.555 311.073 457.51 308.196 460.78 307.852C461.469 307.786 462.437 307.9 462.979 308.114Z" fill="#171717" fill-opacity="0.76"/>
<path d="M483.844 305.104C483.749 305.319 483.962 309.347 484.383 314.034C485.026 321.624 485.148 322.588 485.564 322.695C486.278 322.893 486.879 322.51 486.924 321.767C486.979 321.437 486.722 317.561 486.389 313.191C485.926 307.474 485.675 305.164 485.392 304.925C484.919 304.527 484.089 304.637 483.844 305.104Z" fill="#171717" fill-opacity="0.76"/>
<path d="M497.149 303.943C497.089 304.214 497.191 306.184 497.399 308.351C497.911 313.679 497.479 313.395 504.074 312.673C508.376 312.2 509.257 312.027 509.45 311.624C509.62 311.283 509.561 310.964 509.326 310.632C508.997 310.22 508.417 310.217 504.54 310.589L500.116 310.985L499.762 309.719C499.577 308.998 499.399 307.449 499.373 306.27C499.346 303.879 499.028 303.289 497.937 303.394C497.564 303.43 497.21 303.671 497.149 303.943Z" fill="#171717" fill-opacity="0.76"/>
<path d="M524.07 301.828C523.863 302.084 523.914 303.822 524.28 307.628L524.804 313.073L520.64 313.474C518.369 313.662 516.379 313.765 516.253 313.659C516.127 313.553 516.022 311.258 516.051 308.537C516.05 303.101 515.902 302.465 514.595 302.739C513.914 302.893 513.839 303.018 513.869 304.227C513.91 304.961 513.875 307.003 513.811 308.753C513.642 313.024 513.859 315.278 514.521 315.835C514.962 316.206 515.51 316.183 518.508 315.717C520.45 315.412 522.747 315.192 523.619 315.226L525.247 315.276L525.56 316.724C525.91 318.256 526.475 318.704 527.188 317.985C527.505 317.659 527.486 316.863 527.083 313.268L526.58 308.943L527.399 308.717C527.85 308.585 528.674 308.417 529.277 308.359C530.511 308.241 531.251 307.49 530.62 306.96C530.399 306.774 529.375 306.666 528.304 306.68L526.366 306.719L526.141 304.376C526.017 303.088 525.784 301.87 525.65 301.676C525.32 301.264 524.485 301.315 524.07 301.828Z" fill="#171717" fill-opacity="0.76"/>
<path d="M472.687 307.21C469.884 307.598 469.246 307.895 469.333 308.803C469.409 309.593 469.757 309.59 473.731 309.03L477.335 308.536L477.589 309.369C477.72 309.829 477.79 310.561 477.744 310.979C477.673 311.754 477.59 311.791 475.275 312.132C473.59 312.383 472.716 312.644 472.46 312.993C472.175 313.346 472.058 314.539 472.039 316.757C472.046 321.04 472.249 321.346 475.088 321.339C476.162 321.354 477.979 321.268 479.099 321.16C481.339 320.945 481.962 320.501 481.514 319.451C481.251 318.826 481.162 318.805 478.242 319.174C477.096 319.314 475.741 319.385 475.241 319.315L474.303 319.198L474.293 316.983C474.263 315.775 474.3 314.648 474.401 314.491C474.473 314.336 475.61 314.109 476.931 313.982C480.147 313.673 480.222 313.547 479.87 309.888C479.696 308.073 479.471 306.942 479.219 306.73C478.998 306.544 478.154 306.507 477.123 306.636C476.15 306.759 474.148 307.04 472.687 307.21Z" fill="#171717" fill-opacity="0.76"/>
<path d="M496.199 315.764C495.981 315.903 495.845 316.3 495.873 316.593C495.969 317.588 496.968 317.729 499.963 317.234L502.757 316.759L503.076 317.969C503.259 318.66 503.385 319.978 503.358 320.896C503.332 322.435 503.409 322.635 503.954 322.878C504.74 323.216 504.797 323.21 505.261 322.604C505.571 322.22 505.616 321.477 505.411 319.34L505.146 316.588L508.419 316.273C511.061 316.019 511.713 315.868 511.823 315.503C511.991 314.837 511.616 314.252 510.964 314.108C510.135 313.922 496.688 315.421 496.199 315.764Z" fill="#171717" fill-opacity="0.76"/>
<path d="M455.245 321.119C455.038 321.375 455.038 321.671 455.275 322.032C455.547 322.449 455.958 322.498 458.025 322.299L460.437 322.067L460.754 324.46C461.071 326.852 461.073 326.881 461.857 326.895C462.759 326.926 462.802 326.774 462.805 323.79C462.798 322.816 462.834 321.985 462.857 321.923C462.912 321.889 463.845 321.947 464.958 322.076C466.425 322.26 467.06 322.229 467.324 321.967C467.848 321.385 467.679 320.839 466.765 320.366C466.062 319.99 465.132 319.962 460.733 320.325C456.906 320.605 455.479 320.83 455.245 321.119Z" fill="#171717" fill-opacity="0.76"/>
</g>
<g filter="url(#filter2_d_0_1)">
<rect x="497.812" y="150.479" width="27.2633" height="50.9511" transform="rotate(30.596 497.812 150.479)" fill="#C7F3CB"/>
</g>
<path d="M499.677 160.617L502.213 149.986L509.686 156.227L499.677 160.617Z" fill="#FFF0B9"/>
<path d="M509.471 167.038L512.565 156.872L518.924 162.184L509.471 167.038Z" fill="#FFF0B9"/>
<defs>
<filter id="filter0_d_0_1" x="428" y="182" width="126" height="158" filterUnits="userSpaceOnUse" color-interpolation-filters="sRGB">
<feFlood flood-opacity="0" result="BackgroundImageFix"/>
<feColorMatrix in="SourceAlpha" type="matrix" values="0 0 0 0 0 0 0 0 0 0 0 0 0 0 0 0 0 0 127 0" result="hardAlpha"/>
<feOffset dy="3"/>
<feGaussianBlur stdDeviation="1.5"/>
<feComposite in2="hardAlpha" operator="out"/>
<feColorMatrix type="matrix" values="0 0 0 0 0 0 0 0 0 0 0 0 0 0 0 0 0 0 0.25 0"/>
<feBlend mode="normal" in2="BackgroundImageFix" result="effect1_dropShadow_0_1"/>
<feBlend mode="normal" in="SourceGraphic" in2="effect1_dropShadow_0_1" result="shape"/>
</filter>
<filter id="filter1_d_0_1" x="452.2" y="301.401" width="80.6496" height="29.4967" filterUnits="userSpaceOnUse" color-interpolation-filters="sRGB">
<feFlood flood-opacity="0" result="BackgroundImageFix"/>
<feColorMatrix in="SourceAlpha" type="matrix" values="0 0 0 0 0 0 0 0 0 0 0 0 0 0 0 0 0 0 127 0" result="hardAlpha"/>
<feOffset dy="2"/>
<feGaussianBlur stdDeviation="1"/>
<feComposite in2="hardAlpha" operator="out"/>
<feColorMatrix type="matrix" values="0 0 0 0 0 0 0 0 0 0 0 0 0 0 0 0 0 0 0.25 0"/>
<feBlend mode="normal" in2="BackgroundImageFix" result="effect1_dropShadow_0_1"/>
<feBlend mode="normal" in="SourceGraphic" in2="effect1_dropShadow_0_1" result="shape"/>
</filter>
<filter id="filter2_d_0_1" x="470.879" y="150.479" width="51.4007" height="59.734" filterUnits="userSpaceOnUse" color-interpolation-filters="sRGB">
<feFlood flood-opacity="0" result="BackgroundImageFix"/>
<feColorMatrix in="SourceAlpha" type="matrix" values="0 0 0 0 0 0 0 0 0 0 0 0 0 0 0 0 0 0 127 0" result="hardAlpha"/>
<feOffset dy="1"/>
<feGaussianBlur stdDeviation="0.5"/>
<feComposite in2="hardAlpha" operator="out"/>
<feColorMatrix type="matrix" values="0 0 0 0 0 0 0 0 0 0 0 0 0 0 0 0 0 0 0.25 0"/>
<feBlend mode="normal" in2="BackgroundImageFix" result="effect1_dropShadow_0_1"/>
<feBlend mode="normal" in="SourceGraphic" in2="effect1_dropShadow_0_1" result="shape"/>
</filter>
</defs>
</svg>
